<svg width="413" height="413" viewBox="0 0 413 413" fill="none" xmlns="http://www.w3.org/2000/svg">
<path d="M0.0384712 28.7458C-0.308195 13.4525 13.4918 -0.187505 28.7318 0.0791619C105.585 -0.0541715 182.452 0.0124895 259.305 0.0524895C270.172 -0.26751 280.692 6.06582 285.692 15.6792C288.572 20.8525 289.025 26.8925 289.025 32.7058C288.985 83.1725 289.012 133.639 289.012 184.106C293.238 184.199 299.078 183.519 301.052 188.306C302.212 192.572 301.518 197.092 301.665 201.466C315.838 201.532 330.025 201.479 344.198 201.492C344.412 196.946 343.452 192.146 344.998 187.786C347.505 182.986 353.572 184.399 357.998 184.159C362.718 184.452 369.438 182.759 371.932 188.132C373.145 192.466 372.358 197.092 372.598 201.546C381.238 201.932 390.505 200.053 398.572 204.039C406.785 208.093 412.292 216.946 412.132 226.146C412.238 279.466 412.158 332.786 412.158 386.106C412.532 394.973 408.052 403.812 400.385 408.372C393.758 412.679 385.545 411.973 378.025 412.026C265.585 411.999 153.145 412.013 40.7051 412.013C34.8918 411.946 29.0251 412.359 23.2651 411.359C10.2385 409.026 -0.174859 396.626 0.0518074 383.346C-0.0148593 265.146 -0.0148621 146.932 0.0384712 28.7458ZM2.87848 29.9992C2.79848 144.666 2.87848 259.346 2.83848 374.013C2.86515 379.613 2.51848 385.359 4.10514 390.813C7.34514 401.253 17.6651 409.146 28.7051 408.973C79.6385 409.159 130.585 408.799 181.532 409.159C174.065 404.559 168.652 396.439 168.892 387.479C168.825 333.653 168.798 279.826 168.892 225.999C168.612 215.493 176.078 205.519 186.105 202.572C191.425 201.079 197.012 201.586 202.465 201.492C202.505 197.359 202.118 193.199 202.732 189.106C203.492 185.879 206.865 183.919 210.065 184.226C215.718 184.413 221.612 183.453 227.118 184.933C232.972 188.239 230.172 196.066 230.785 201.479C244.972 201.519 259.158 201.492 273.358 201.492C273.572 196.919 272.585 192.052 274.238 187.719C276.545 183.439 281.945 184.279 285.998 184.106C285.985 132.306 286.092 80.4925 285.958 28.6925C286.105 17.2792 277.612 6.63916 266.625 3.86582C262.065 2.77249 257.332 3.02582 252.692 2.99916C178.038 3.05249 103.385 2.94582 28.7318 3.05249C14.5051 2.70582 2.11848 15.8792 2.87848 29.9992ZM207.585 187.546C204.998 188.546 205.505 191.799 205.385 194.012C205.545 204.239 205.198 214.492 205.532 224.719C205.385 226.492 207.052 228.066 208.772 228.066C214.038 228.332 219.332 228.359 224.585 228.052C226.238 228.012 227.825 226.439 227.705 224.759C228.038 214.519 227.678 204.266 227.865 194.026C227.905 191.572 227.998 187.546 224.678 187.346C218.998 187.092 213.225 186.826 207.585 187.546ZM278.265 187.666C275.985 188.919 276.412 191.813 276.305 193.999C276.492 204.239 276.118 214.492 276.465 224.719C276.292 226.812 278.558 228.293 280.478 228.119C285.665 228.199 290.905 228.492 296.065 227.906C298.798 227.292 298.678 224.132 298.692 221.946C298.612 211.786 298.798 201.599 298.612 191.439C298.798 189.479 297.438 187.266 295.305 187.333C289.652 187.199 283.852 186.719 278.265 187.666ZM349.012 187.719C346.745 188.986 347.278 191.879 347.132 194.039C347.292 203.866 347.052 213.679 347.212 223.492C346.972 225.479 348.052 227.893 350.278 228.039C355.438 228.386 360.625 228.293 365.798 228.119C368.358 228.293 369.852 225.692 369.558 223.399C369.585 212.719 369.612 202.039 369.532 191.373C369.705 189.413 368.212 187.186 366.092 187.306C360.425 187.239 354.572 186.599 349.012 187.719ZM171.758 225.012C171.532 233.852 171.745 242.719 171.678 251.573C250.892 251.599 330.118 251.586 409.345 251.586C409.238 242.652 409.558 233.719 409.212 224.799C408.998 217.159 404.172 210.053 397.425 206.626C389.705 202.879 380.812 204.812 372.558 204.359C372.452 211.132 372.732 217.906 372.478 224.679C372.505 228.092 369.478 231.119 366.065 231.092C360.745 231.266 355.412 231.333 350.092 231.039C346.945 230.813 344.292 227.893 344.278 224.746C343.998 217.946 344.318 211.119 344.158 204.319C329.998 204.346 315.838 204.306 301.678 204.333C301.558 211.093 301.892 217.866 301.572 224.626C301.532 227.946 298.665 230.959 295.318 231.039C289.998 231.306 284.638 231.346 279.332 230.999C276.105 230.799 273.372 227.786 273.438 224.572C273.145 217.826 273.452 211.066 273.332 204.319C259.158 204.332 244.985 204.319 230.812 204.333C230.705 211.066 230.958 217.812 230.745 224.546C230.785 227.839 228.065 230.959 224.732 231.052C219.372 231.306 213.985 231.292 208.625 231.066C205.278 230.999 202.452 227.906 202.505 224.586C202.265 217.839 202.532 211.092 202.438 204.346C197.812 204.372 193.158 204.066 188.585 204.879C179.292 206.719 171.918 215.506 171.758 225.012ZM171.678 254.559C171.692 298.799 171.638 343.039 171.705 387.279C171.252 399.186 182.172 409.906 194.105 408.973C258.532 409.079 322.972 408.986 387.398 409.013C399.172 409.626 409.692 398.959 409.292 387.239C409.412 343.013 409.318 298.786 409.345 254.573C330.118 254.559 250.905 254.573 171.678 254.559Z" fill="#F29C21"/>
<path d="M42.6252 42.5591C44.4518 40.3991 47.4119 40.2925 50.0252 40.3191C70.4785 40.3591 90.9319 40.3725 111.385 40.3191C114.025 40.3191 117.105 40.2925 119.025 42.4658C122.452 45.9458 121.145 51.2525 120.745 55.5858C116.145 53.6658 120.065 47.4125 116.919 44.3991C115.425 42.9325 113.159 43.3058 111.265 43.1591C90.3852 43.2391 69.5052 43.1058 48.6252 43.2258C45.4518 42.6925 42.9318 45.6391 43.3718 48.6791C43.3318 67.8125 43.2919 86.9458 43.3985 106.066C43.0252 108.986 45.5318 111.626 48.4652 111.292C68.9985 111.452 89.5319 111.252 110.052 111.386C112.799 111.292 116.652 111.759 117.932 108.612C119.065 101.612 117.759 94.4525 118.545 87.4125C119.065 86.9591 120.092 86.0525 120.599 85.5991C121.652 92.7858 121.132 100.106 121.092 107.346C121.039 111.559 116.799 114.612 112.772 114.159C91.3852 114.186 70.0119 114.212 48.6252 114.146C44.1319 114.612 40.0519 110.572 40.5319 106.079C40.4385 87.8525 40.5852 69.6258 40.4785 51.3991C40.5718 48.3858 40.1585 44.7991 42.6252 42.5591Z" fill="#F29C21"/>
<path d="M163.038 40.5459C195.225 40.1459 227.451 40.1592 259.651 40.5459C259.371 42.4125 258.385 43.2792 256.678 43.1192C226.438 43.1592 196.185 43.1725 165.945 43.1059C164.265 43.2525 163.291 42.3992 163.038 40.5459Z" fill="#F29C21"/>
<path d="M133.185 57.1192C134.225 56.1592 136.612 54.1592 137.252 56.8259C130.025 64.4125 121.558 70.7325 113.852 77.8392C108.025 82.7459 102.558 88.0926 96.5316 92.7726C94.6516 92.3059 93.5183 90.4259 92.0916 89.2392C87.145 83.9592 81.6516 79.1992 76.9316 73.7192C77.2116 73.2259 77.785 72.2259 78.065 71.7325C84.6916 77.0259 90.1583 83.5992 96.3183 89.3992C108.612 78.6525 120.918 67.9059 133.185 57.1192Z" fill="#F29C21"/>
<path d="M162.812 78.2524C163.638 74.7191 167.478 76.0658 170.078 75.7858C199.545 76.0258 229.051 75.5058 258.491 76.0391C258.838 76.5991 259.518 77.7058 259.865 78.2658C234.825 79.1591 209.732 78.3991 184.665 78.6524C177.385 78.5191 170.078 79.0258 162.812 78.2524Z" fill="#F29C21"/>
<path d="M40.5584 176.599C40.2784 172.199 44.4651 168.706 48.7051 169.066C70.0518 168.972 91.3984 168.999 112.745 169.052C117.465 168.479 122.678 173.159 120.692 178.012C117.612 177.812 118.358 173.359 115.718 172.386C113.465 171.666 111.065 171.866 108.745 171.812C88.6784 171.946 68.6251 171.719 48.5718 171.906C45.9184 171.692 43.2784 173.732 43.4384 176.532C43.2251 195.719 43.3851 214.919 43.3584 234.106C42.8251 237.292 45.2384 240.466 48.5984 240.119C69.5451 240.279 90.5051 240.132 111.452 240.186C113.998 240.279 117.585 239.812 118.118 236.732C118.852 229.812 117.852 222.839 118.558 215.932C119.145 215.612 120.318 214.959 120.905 214.626C121.278 221.972 121.358 229.346 121.025 236.679C120.718 240.719 116.585 243.239 112.798 242.986C91.3984 243.026 69.9984 243.066 48.6118 242.959C44.4118 243.292 40.3051 239.799 40.5718 235.466C40.4784 215.839 40.4784 196.212 40.5584 176.599Z" fill="#F29C21"/>
<path d="M129.252 189.359C131.732 187.279 133.958 184.519 137.385 184.093C136.838 185.999 135.732 187.666 134.172 188.893C121.545 199.853 108.958 210.866 96.3982 221.919C89.8515 216.093 83.7848 209.733 77.6515 203.466C75.7715 202.386 78.5582 199.399 79.5982 201.586C85.2782 207.013 90.6915 212.719 96.3048 218.213C107.278 208.586 118.305 199.013 129.252 189.359Z" fill="#F29C21"/>
<path d="M207.825 316.786C208.012 305.479 207.492 294.146 208.145 282.839C220.732 282.946 233.319 282.653 245.892 283.013C246.052 295.573 246.145 308.159 245.852 320.719C233.839 320.919 221.825 320.906 209.812 320.773C207.332 321.213 207.999 318.199 207.825 316.786ZM210.852 285.853C210.839 296.519 210.839 307.186 210.852 317.839C221.572 317.853 232.292 317.853 243.012 317.839C243.012 307.186 243.012 296.519 243.012 285.853C232.292 285.839 221.572 285.839 210.852 285.853Z" fill="#F29C21"/>
<path d="M271.532 283.066C284.078 282.559 296.638 283.026 309.198 282.812C309.905 295.373 309.331 307.972 309.491 320.546C296.878 321.106 284.225 320.879 271.598 320.679C271.425 308.146 271.532 295.599 271.532 283.066ZM274.505 285.866C274.505 296.519 274.518 307.172 274.505 317.839C285.171 317.866 295.838 317.839 306.505 317.852C306.518 307.186 306.518 296.519 306.505 285.852C295.838 285.839 285.171 285.826 274.505 285.866Z" fill="#F29C21"/>
<path d="M335.106 282.972C347.719 282.746 360.332 282.799 372.932 282.946C373.039 295.546 373.092 308.159 372.906 320.759C360.319 320.892 347.732 320.919 335.146 320.746C334.906 308.159 334.972 295.559 335.106 282.972ZM338.012 285.852C338.012 296.519 338.012 307.186 338.012 317.852C348.732 317.839 359.452 317.852 370.172 317.839C370.186 307.172 370.186 296.519 370.172 285.852C359.452 285.839 348.732 285.839 338.012 285.852Z" fill="#F29C21"/>
<path d="M40.5451 305.919C40.0651 301.413 44.1317 297.386 48.625 297.879C70.465 297.879 92.305 297.733 114.132 297.946C118.545 297.679 123.638 303.799 119.558 307.319C118.132 304.946 117.652 300.733 114.065 300.813C92.2517 300.533 70.4251 300.706 48.625 300.719C45.705 300.359 43.0384 302.879 43.3984 305.826C43.2917 325.039 43.3317 344.253 43.385 363.466C42.9717 366.466 45.5184 369.279 48.6117 368.813C69.5184 368.933 90.4384 368.799 111.345 368.866C113.798 368.919 117.172 368.813 117.998 365.933C119.158 358.373 117.332 350.599 119.092 343.106L120.798 344.746C121.652 350.866 121.025 357.133 121.172 363.306C121.678 367.453 118.412 371.746 114.078 371.613C92.2651 371.759 70.4384 371.639 48.625 371.666C43.9984 372.213 39.9717 367.959 40.5317 363.386C40.505 344.239 40.4917 325.079 40.5451 305.919Z" fill="#F29C21"/>
<path d="M96.3722 346.933C109.426 335.693 122.132 324.026 135.386 313.039C138.959 313.319 135.919 316.119 134.612 317.266C121.839 328.386 109.106 339.559 96.3589 350.719C91.1855 346.013 86.4522 340.879 81.4122 336.053C79.7455 334.279 77.6522 332.706 76.8389 330.333C79.1055 328.653 80.5455 331.319 82.0789 332.599C86.7989 337.413 91.5855 342.173 96.3722 346.933Z" fill="#F29C21"/>
<path d="M208.119 340.199C220.532 338.999 233.199 339.973 245.719 339.733C246.225 352.373 246.172 365.066 245.745 377.719C233.132 377.786 220.492 378.213 207.892 377.493C207.985 365.066 207.492 352.599 208.119 340.199ZM210.852 342.679C210.839 353.399 210.852 364.119 210.839 374.839C221.559 374.866 232.279 374.839 243.012 374.853C243.012 364.119 243.039 353.399 242.985 342.666C232.279 342.693 221.559 342.666 210.852 342.679Z" fill="#F29C21"/>
<path d="M271.759 339.746C284.305 339.706 296.865 339.492 309.399 339.866C309.625 352.399 309.479 364.946 309.479 377.492C296.892 378.172 284.252 377.852 271.652 377.679C271.479 365.039 271.279 352.372 271.759 339.746ZM274.519 374.852C285.185 374.839 295.852 374.866 306.519 374.826C306.505 364.119 306.519 353.399 306.505 342.679C295.852 342.666 285.185 342.692 274.532 342.666C274.492 353.399 274.519 364.119 274.519 374.852Z" fill="#F29C21"/>
<path d="M335.359 339.706C347.639 339.813 359.959 339.373 372.239 339.893L372.852 340.559C373.119 352.946 373.145 365.373 372.799 377.773C360.279 377.879 347.772 377.919 335.265 377.746C334.905 365.079 334.732 352.359 335.359 339.706ZM338.039 342.666C337.999 353.399 338.012 364.119 338.025 374.853C348.732 374.839 359.439 374.853 370.159 374.853C370.252 364.159 370.079 353.466 370.252 342.773C359.519 342.559 348.772 342.746 338.039 342.666Z" fill="#F29C21"/>
</svg>
