<svg width="157" height="180" viewBox="0 0 157 180" fill="none" xmlns="http://www.w3.org/2000/svg">
<path d="M78.5197 64.317C82.5735 64.317 85.8597 61.0307 85.8597 56.977C85.8597 52.9232 82.5735 49.637 78.5197 49.637C74.4659 49.637 71.1797 52.9232 71.1797 56.977C71.1797 61.0307 74.4659 64.317 78.5197 64.317Z" stroke="#F29C21" stroke-width="3" stroke-linecap="round" stroke-linejoin="round"/>
<path d="M78.5199 80.7449C91.6461 80.7449 102.287 70.1041 102.287 56.9779C102.287 43.8518 91.6461 33.2109 78.5199 33.2109C65.3938 33.2109 54.7529 43.8518 54.7529 56.9779C54.7529 70.1041 65.3938 80.7449 78.5199 80.7449Z" stroke="#F29C21" stroke-width="3" stroke-linecap="round" stroke-linejoin="round"/>
<path d="M78.5205 94.309C99.1378 94.309 115.851 77.5953 115.851 56.978C115.851 36.3606 99.1378 19.647 78.5205 19.647C57.9031 19.647 41.1895 36.3606 41.1895 56.978C41.1895 77.5953 57.9031 94.309 78.5205 94.309Z" stroke="#F29C21" stroke-width="3" stroke-linecap="round" stroke-linejoin="round"/>
<path d="M73.1688 51.965L51.9648 30.761" stroke="#F29C21" stroke-width="3" stroke-linecap="round" stroke-linejoin="round"/>
<path d="M23.8047 15.873C23.8047 15.873 36.9457 16.108 37.2047 15.873C37.4637 15.638 37.1997 2 37.1997 2L51.3917 16.183V30.057H37.6027L23.8047 15.873Z" stroke="#F29C21" stroke-width="3" stroke-linecap="round" stroke-linejoin="round"/>
<path d="M58.9111 147.962C57.6539 142.648 54.9161 137.799 51.0151 133.978C47.1142 130.157 42.2099 127.52 36.8711 126.373" stroke="#F29C21" stroke-width="3" stroke-linecap="round" stroke-linejoin="round"/>
<path d="M24.791 126.373C18.3473 127.758 12.5719 131.307 8.42553 136.431C4.27912 141.554 2.01156 147.942 2 154.533V163.516H50.238" stroke="#F29C21" stroke-width="3" stroke-linecap="round" stroke-linejoin="round"/>
<path d="M30.8346 127.452C40.0777 127.452 47.5706 119.959 47.5706 110.716C47.5706 101.473 40.0777 93.98 30.8346 93.98C21.5916 93.98 14.0986 101.473 14.0986 110.716C14.0986 119.959 21.5916 127.452 30.8346 127.452Z" stroke="#F29C21" stroke-width="3" stroke-linecap="round" stroke-linejoin="round"/>
<path d="M72.4836 140.904C66.0366 142.284 60.2572 145.832 56.1084 150.956C51.9597 156.08 49.6921 162.471 49.6836 169.064V178.056H107.356V169.064C107.347 162.471 105.08 156.08 100.931 150.956C96.782 145.832 91.0026 142.284 84.5556 140.904" stroke="#F29C21" stroke-width="3" stroke-linecap="round" stroke-linejoin="round"/>
<path d="M78.5202 142.02C87.7632 142.02 95.2562 134.527 95.2562 125.284C95.2562 116.041 87.7632 108.548 78.5202 108.548C69.2771 108.548 61.7842 116.041 61.7842 125.284C61.7842 134.527 69.2771 142.02 78.5202 142.02Z" stroke="#F29C21" stroke-width="3" stroke-linecap="round" stroke-linejoin="round"/>
<path d="M106.802 163.516H155.04V154.533C155.028 147.943 152.761 141.555 148.615 136.431C144.47 131.308 138.695 127.759 132.252 126.373" stroke="#F29C21" stroke-width="3" stroke-linecap="round" stroke-linejoin="round"/>
<path d="M120.272 126.307C114.905 127.44 109.972 130.078 106.05 133.913C102.128 137.748 99.3807 142.622 98.1289 147.962" stroke="#F29C21" stroke-width="3" stroke-linecap="round" stroke-linejoin="round"/>
<path d="M126.204 127.452C135.447 127.452 142.94 119.959 142.94 110.716C142.94 101.473 135.447 93.98 126.204 93.98C116.961 93.98 109.468 101.473 109.468 110.716C109.468 119.959 116.961 127.452 126.204 127.452Z" stroke="#F29C21" stroke-width="3" stroke-linecap="round" stroke-linejoin="round"/>
</svg>
