<svg width="151" height="149" viewBox="0 0 151 149" fill="none" xmlns="http://www.w3.org/2000/svg">
<path d="M27.6504 14.1101H122.99" stroke="#F29C21" stroke-width="3" stroke-linecap="round" stroke-linejoin="round"/>
<path d="M14.7695 121.61V27.6499" stroke="#F29C21" stroke-width="3" stroke-linecap="round" stroke-linejoin="round"/>
<path d="M122.99 134.44H27.6504" stroke="#F29C21" stroke-width="3" stroke-linecap="round" stroke-linejoin="round"/>
<path d="M135.1 27.6499V121.61" stroke="#F29C21" stroke-width="3" stroke-linecap="round" stroke-linejoin="round"/>
<path d="M20.32 2H9.33C5.28175 2 2 5.28175 2 9.33V20.32C2 24.3682 5.28175 27.65 9.33 27.65H20.32C24.3682 27.65 27.65 24.3682 27.65 20.32V9.33C27.65 5.28175 24.3682 2 20.32 2Z" stroke="#F29C21" stroke-width="3" stroke-linecap="round" stroke-linejoin="round"/>
<path d="M141.31 2H130.32C126.272 2 122.99 5.28175 122.99 9.33V20.32C122.99 24.3682 126.272 27.65 130.32 27.65H141.31C145.358 27.65 148.64 24.3682 148.64 20.32V9.33C148.64 5.28175 145.358 2 141.31 2Z" stroke="#F29C21" stroke-width="3" stroke-linecap="round" stroke-linejoin="round"/>
<path d="M20.32 121.61H9.33C5.28175 121.61 2 124.892 2 128.94V139.93C2 143.978 5.28175 147.26 9.33 147.26H20.32C24.3682 147.26 27.65 143.978 27.65 139.93V128.94C27.65 124.892 24.3682 121.61 20.32 121.61Z" stroke="#F29C21" stroke-width="3" stroke-linecap="round" stroke-linejoin="round"/>
<path d="M141.31 121.61H130.32C126.272 121.61 122.99 124.892 122.99 128.94V139.93C122.99 143.978 126.272 147.26 130.32 147.26H141.31C145.358 147.26 148.64 143.978 148.64 139.93V128.94C148.64 124.892 145.358 121.61 141.31 121.61Z" stroke="#F29C21" stroke-width="3" stroke-linecap="round" stroke-linejoin="round"/>
<path d="M74.9404 14.8301V134.44" stroke="#F29C21" stroke-width="3" stroke-linecap="round" stroke-linejoin="round"/>
<path d="M14.8301 74.28H135.1" stroke="#F29C21" stroke-width="3" stroke-linecap="round" stroke-linejoin="round"/>
</svg>
