<svg width="144" height="182" viewBox="0 0 144 182" fill="none" xmlns="http://www.w3.org/2000/svg">
<path d="M134.15 2H9.95C5.55934 2 2 5.55934 2 9.95V171.57C2 175.961 5.55934 179.52 9.95 179.52H134.15C138.541 179.52 142.1 175.961 142.1 171.57V9.95C142.1 5.55934 138.541 2 134.15 2Z" stroke="#F29C21" stroke-width="3" stroke-linecap="round" stroke-linejoin="round"/>
<path d="M11.48 15.3701C13.424 15.3701 15 13.7941 15 11.8501C15 9.90604 13.424 8.33008 11.48 8.33008C9.53592 8.33008 7.95996 9.90604 7.95996 11.8501C7.95996 13.7941 9.53592 15.3701 11.48 15.3701Z" fill="#F29C21"/>
<path d="M23.8804 15.3701C25.8244 15.3701 27.4004 13.7941 27.4004 11.8501C27.4004 9.90604 25.8244 8.33008 23.8804 8.33008C21.9363 8.33008 20.3604 9.90604 20.3604 11.8501C20.3604 13.7941 21.9363 15.3701 23.8804 15.3701Z" fill="#F29C21"/>
<path d="M36.2798 15.3701C38.2238 15.3701 39.7998 13.7941 39.7998 11.8501C39.7998 9.90604 38.2238 8.33008 36.2798 8.33008C34.3357 8.33008 32.7598 9.90604 32.7598 11.8501C32.7598 13.7941 34.3357 15.3701 36.2798 15.3701Z" fill="#F29C21"/>
<path d="M30.3196 121.83C36.9525 121.83 42.3296 116.453 42.3296 109.82C42.3296 103.187 36.9525 97.8101 30.3196 97.8101C23.6866 97.8101 18.3096 103.187 18.3096 109.82C18.3096 116.453 23.6866 121.83 30.3196 121.83Z" stroke="#F29C21" stroke-width="3" stroke-linecap="round" stroke-linejoin="round"/>
<path d="M72.6301 121.83C79.2631 121.83 84.6401 116.453 84.6401 109.82C84.6401 103.187 79.2631 97.8101 72.6301 97.8101C65.9972 97.8101 60.6201 103.187 60.6201 109.82C60.6201 116.453 65.9972 121.83 72.6301 121.83Z" stroke="#F29C21" stroke-width="3" stroke-linecap="round" stroke-linejoin="round"/>
<path d="M114.93 121.83C121.563 121.83 126.94 116.453 126.94 109.82C126.94 103.187 121.563 97.8101 114.93 97.8101C108.297 97.8101 102.92 103.187 102.92 109.82C102.92 116.453 108.297 121.83 114.93 121.83Z" stroke="#F29C21" stroke-width="3" stroke-linecap="round" stroke-linejoin="round"/>
<path d="M2 21.74H142.1" stroke="#F29C21" stroke-width="3" stroke-linecap="round" stroke-linejoin="round"/>
<path d="M91.7305 81.79H142.1" stroke="#F29C21" stroke-width="3" stroke-linecap="round" stroke-linejoin="round"/>
<path d="M2 81.79H51.69" stroke="#F29C21" stroke-width="3" stroke-linecap="round" stroke-linejoin="round"/>
<path d="M86.0604 76.1299H57.3504C54.2245 76.1299 51.6904 78.664 51.6904 81.7899C51.6904 84.9158 54.2245 87.4499 57.3504 87.4499H86.0604C89.1864 87.4499 91.7204 84.9158 91.7204 81.7899C91.7204 78.664 89.1864 76.1299 86.0604 76.1299Z" stroke="#F29C21" stroke-width="3" stroke-linecap="round" stroke-linejoin="round"/>
<path d="M64.2898 144.91H19.5498V168.93H64.2898V144.91Z" stroke="#F29C21" stroke-width="3" stroke-linecap="round" stroke-linejoin="round"/>
<path d="M40.6297 158.12L28.9697 168.93H54.8697L43.2097 158.12C42.8597 157.793 42.3986 157.611 41.9197 157.611C41.4408 157.611 40.9797 157.793 40.6297 158.12Z" stroke="#F29C21" stroke-width="3" stroke-linecap="round" stroke-linejoin="round"/>
<path d="M123.88 144.91H79.1396V168.93H123.88V144.91Z" stroke="#F29C21" stroke-width="3" stroke-linecap="round" stroke-linejoin="round"/>
<path d="M100.22 158.12L88.5596 168.93H114.5L102.85 158.12C102.496 157.781 102.025 157.591 101.535 157.591C101.044 157.591 100.573 157.781 100.22 158.12Z" stroke="#F29C21" stroke-width="3" stroke-linecap="round" stroke-linejoin="round"/>
<path d="M20.3604 132.66H42.3304" stroke="#F29C21" stroke-width="3" stroke-linecap="round" stroke-linejoin="round"/>
<path d="M60.7305 132.66H82.7005" stroke="#F29C21" stroke-width="3" stroke-linecap="round" stroke-linejoin="round"/>
<path d="M26.1602 41.21H49.6902" stroke="#F29C21" stroke-width="3" stroke-linecap="round" stroke-linejoin="round"/>
<path d="M39.9297 51.77H68.2997" stroke="#F29C21" stroke-width="3" stroke-linecap="round" stroke-linejoin="round"/>
<path d="M75.7998 51.77H104.17" stroke="#F29C21" stroke-width="3" stroke-linecap="round" stroke-linejoin="round"/>
<path d="M94.7695 41.21H118.3" stroke="#F29C21" stroke-width="3" stroke-linecap="round" stroke-linejoin="round"/>
<path d="M57.0898 41.21H87.3698" stroke="#F29C21" stroke-width="3" stroke-linecap="round" stroke-linejoin="round"/>
<path d="M51.75 62.72H92.71" stroke="#F29C21" stroke-width="3" stroke-linecap="round" stroke-linejoin="round"/>
<path d="M101.09 132.66H123.06" stroke="#F29C21" stroke-width="3" stroke-linecap="round" stroke-linejoin="round"/>
</svg>
