<svg width="385" height="385" viewBox="0 0 385 385" fill="none" xmlns="http://www.w3.org/2000/svg">
<path d="M96.1663 329.034C95.7218 333.81 93.5104 338.248 89.9651 341.478C86.4198 344.709 81.7962 346.5 76.9997 346.5H51.333C46.2276 346.5 41.3313 344.472 37.7212 340.862C34.1111 337.252 32.083 332.355 32.083 327.25V237.417C32.083 232.311 34.1111 227.415 37.7212 223.805C41.3313 220.195 46.2276 218.167 51.333 218.167H76.9997C81.5603 218.166 85.973 219.785 89.4515 222.735C92.9299 225.684 95.2481 229.773 95.993 234.273H200.52C202.222 234.273 203.854 234.949 205.057 236.152C206.26 237.356 206.936 238.988 206.936 240.689C206.936 242.391 206.26 244.023 205.057 245.226C203.854 246.429 202.222 247.105 200.52 247.106H96.2497V315.828L182.811 337.465C188.623 338.918 194.762 338.292 200.161 335.694L342.316 267.357C344.628 266.245 346.415 264.276 347.299 261.868C348.183 259.46 348.094 256.803 347.052 254.459C345.969 252.02 344.002 250.081 341.547 249.033C339.092 247.985 336.331 247.907 333.82 248.813L236.351 284.015C233.553 285.026 230.6 285.542 227.625 285.542H147.583C145.881 285.542 144.249 284.866 143.046 283.662C141.842 282.459 141.166 280.827 141.166 279.125C141.166 277.423 141.842 275.791 143.046 274.588C144.249 273.384 145.881 272.708 147.583 272.708H227.631C229.119 272.709 230.595 272.45 231.994 271.945L329.463 236.749C335.025 234.741 341.141 234.913 346.581 237.233C352.02 239.552 356.38 243.845 358.781 249.249C361.177 254.642 361.379 260.757 359.342 266.296C357.306 271.835 353.192 276.363 347.873 278.92L205.724 347.257C197.627 351.152 188.422 352.092 179.705 349.914L96.1663 329.034ZM83.4163 320.699V237.417C83.4163 235.715 82.7403 234.083 81.5369 232.879C80.3336 231.676 78.7015 231 76.9997 231H51.333C49.6312 231 47.9991 231.676 46.7957 232.879C45.5924 234.083 44.9163 235.715 44.9163 237.417V327.25C44.9163 328.952 45.5924 330.584 46.7957 331.787C47.9991 332.991 49.6312 333.667 51.333 333.667H76.9997C78.7015 333.667 80.3336 332.991 81.5369 331.787C82.7403 330.584 83.4163 328.952 83.4163 327.25V320.975V320.699ZM186.083 151.799H149.72C148.877 151.799 148.042 151.633 147.264 151.311C146.485 150.989 145.777 150.516 145.181 149.92C144.585 149.324 144.113 148.617 143.79 147.838C143.468 147.06 143.302 146.225 143.302 145.382C143.302 144.54 143.468 143.705 143.79 142.927C144.113 142.148 144.585 141.44 145.181 140.845C145.777 140.249 146.485 139.776 147.264 139.454C148.042 139.131 148.877 138.966 149.72 138.966H180.071C178.544 138.013 177.132 136.89 175.861 135.616L151.664 111.419C151.051 110.827 150.562 110.119 150.226 109.336C149.89 108.553 149.713 107.711 149.705 106.859C149.698 106.007 149.86 105.162 150.183 104.374C150.506 103.585 150.982 102.869 151.584 102.266C152.187 101.664 152.903 101.187 153.692 100.865C154.481 100.542 155.325 100.38 156.177 100.387C157.029 100.395 157.871 100.572 158.654 100.908C159.437 101.244 160.145 101.733 160.737 102.346L184.934 126.543C189.112 130.714 195.888 130.714 200.065 126.543L224.256 102.346C224.852 101.75 225.559 101.277 226.337 100.954C227.116 100.631 227.95 100.465 228.793 100.464C229.636 100.464 230.471 100.63 231.249 100.952C232.028 101.274 232.736 101.747 233.332 102.343C233.928 102.938 234.401 103.646 234.724 104.424C235.047 105.203 235.213 106.037 235.214 106.88C235.214 107.723 235.048 108.558 234.726 109.336C234.404 110.115 233.931 110.823 233.335 111.419L209.138 135.616C207.867 136.89 206.455 138.013 204.929 138.966H235.28C236.981 138.966 238.613 139.642 239.816 140.846C241.019 142.049 241.695 143.681 241.695 145.382C241.695 147.084 241.019 148.716 239.816 149.919C238.613 151.122 236.981 151.799 235.28 151.799H198.916V171.049H237.416C239.118 171.049 240.75 171.725 241.954 172.928C243.157 174.132 243.833 175.764 243.833 177.466C243.833 179.168 243.157 180.8 241.954 182.003C240.75 183.206 239.118 183.882 237.416 183.882H198.916V215.966C198.916 217.668 198.24 219.3 197.037 220.503C195.834 221.706 194.201 222.382 192.5 222.382C190.798 222.382 189.166 221.706 187.962 220.503C186.759 219.3 186.083 217.668 186.083 215.966V183.882H147.583C145.881 183.882 144.249 183.206 143.046 182.003C141.842 180.8 141.166 179.168 141.166 177.466C141.166 175.764 141.842 174.132 143.046 172.928C144.249 171.725 145.881 171.049 147.583 171.049H186.083V151.799ZM321.295 224.288C321.005 225.079 320.562 225.806 319.992 226.426C319.421 227.046 318.734 227.548 317.969 227.902C317.205 228.257 316.378 228.457 315.536 228.492C314.694 228.527 313.854 228.396 313.062 228.106C312.271 227.816 311.545 227.373 310.925 226.803C310.305 226.232 309.803 225.545 309.448 224.781C309.094 224.016 308.893 223.189 308.858 222.347C308.823 221.505 308.955 220.665 309.245 219.874C314.291 206.063 316.865 191.47 316.848 176.766C316.848 107.492 260.69 51.3333 191.415 51.3333C122.141 51.3333 65.9823 107.492 65.9823 176.766C65.9818 178.468 65.3056 180.1 64.1023 181.303C62.899 182.506 61.2671 183.181 59.5656 183.181C57.8641 183.181 56.2322 182.506 55.0289 181.303C53.8256 180.1 53.1493 178.468 53.1489 176.766C53.1489 100.408 115.051 38.5 191.415 38.5C267.774 38.5 329.682 100.402 329.682 176.766C329.682 193.174 326.82 209.196 321.295 224.288Z" fill="#F19900"/>
</svg>
