<svg width="205" height="141" viewBox="0 0 205 141" fill="none" xmlns="http://www.w3.org/2000/svg">
<path d="M15.8936 65.444V9.04701C15.8935 7.18614 16.6295 5.4008 17.9409 4.08057C19.2524 2.76034 21.0327 2.01242 22.8936 2.00001H182.618C183.544 1.99856 184.461 2.17977 185.318 2.53327C186.174 2.88677 186.952 3.40562 187.608 4.06013C188.263 4.71465 188.783 5.492 189.138 6.3477C189.493 7.20339 189.676 8.12066 189.676 9.04701V44.792" stroke="#F29C21" stroke-width="3" stroke-linecap="round" stroke-linejoin="round"/>
<path d="M142.849 115.405H48.8721" stroke="#F29C21" stroke-width="3" stroke-linecap="round" stroke-linejoin="round"/>
<path d="M48.8721 95.4651H142.849" stroke="#F29C21" stroke-width="3" stroke-linecap="round" stroke-linejoin="round"/>
<path d="M42.632 65.4441H8.24C4.79374 65.4441 2 68.2378 2 71.6841V132.896C2 136.342 4.79374 139.136 8.24 139.136H42.632C46.0783 139.136 48.872 136.342 48.872 132.896V71.6841C48.872 68.2378 46.0783 65.4441 42.632 65.4441Z" stroke="#F29C21" stroke-width="3" stroke-linecap="round" stroke-linejoin="round"/>
<path d="M131.436 128.899H74.078C73.4594 128.899 72.958 129.4 72.958 130.019V138.027C72.958 138.645 73.4594 139.147 74.078 139.147H131.436C132.055 139.147 132.556 138.645 132.556 138.027V130.019C132.556 129.4 132.055 128.899 131.436 128.899Z" stroke="#F29C21" stroke-width="3" stroke-linecap="round" stroke-linejoin="round"/>
<path d="M123.374 128.899H82.1377L86.3057 115.405H119.217L123.374 128.899Z" stroke="#F29C21" stroke-width="3" stroke-linecap="round" stroke-linejoin="round"/>
<path d="M15.1602 65.811H35.7002L33.6332 75.537H17.2382L15.1602 65.811Z" stroke="#F29C21" stroke-width="3" stroke-linecap="round" stroke-linejoin="round"/>
<path d="M106.23 101.701H99.2943C97.5601 101.701 96.1543 103.107 96.1543 104.841V105.541C96.1543 107.275 97.5601 108.681 99.2943 108.681H106.23C107.964 108.681 109.37 107.275 109.37 105.541V104.841C109.37 103.107 107.964 101.701 106.23 101.701Z" fill="#F29C21"/>
<path d="M32.6146 125.409H18.2456C16.7379 125.409 15.5156 126.631 15.5156 128.139V129.259C15.5156 130.767 16.7379 131.989 18.2456 131.989H32.6146C34.1224 131.989 35.3446 130.767 35.3446 129.259V128.139C35.3446 126.631 34.1224 125.409 32.6146 125.409Z" fill="#F29C21"/>
<path d="M194.89 44.7371H150.838C146.425 44.7371 142.848 48.3143 142.848 52.7271V131.146C142.848 135.559 146.425 139.136 150.838 139.136H194.89C199.302 139.136 202.88 135.559 202.88 131.146V52.7271C202.88 48.3143 199.302 44.7371 194.89 44.7371Z" stroke="#F29C21" stroke-width="3" stroke-linecap="round" stroke-linejoin="round"/>
<path d="M162.811 45.2041H182.918L180.884 54.7341H164.831L162.811 45.2041Z" stroke="#F29C21" stroke-width="3" stroke-linecap="round" stroke-linejoin="round"/>
<path d="M182.073 123.564H163.655C161.728 123.564 160.165 125.126 160.165 127.054V128.499C160.165 130.426 161.728 131.989 163.655 131.989H182.073C184.001 131.989 185.563 130.426 185.563 128.499V127.054C185.563 125.126 184.001 123.564 182.073 123.564Z" fill="#F29C21"/>
</svg>
